<?xml version="1.0"?>
<svg width="24" height="24" xmlns="http://www.w3.org/2000/svg" xmlns:svg="http://www.w3.org/2000/svg">
 <g class="layer">
  <title>Layer 1</title>
  <path d="m4.66,14.06c0.69,-1.24 1.03,-1.86 1.54,-1.86c0.51,0 0.85,0.62 1.54,1.86l0.17,0.32c0.19,0.35 0.29,0.52 0.45,0.64c0.15,0.11 0.34,0.16 0.71,0.25l0.35,0.08c1.33,0.31 1.99,0.46 2.15,0.97c0.16,0.51 -0.29,1.05 -1.2,2.11l-0.23,0.28c-0.26,0.3 -0.39,0.45 -0.45,0.64c-0.05,0.19 -0.04,0.39 0,0.8l0.04,0.37c0.13,1.43 0.21,2.14 -0.21,2.46c-0.41,0.32 -1.03,0.03 -2.28,-0.55l-0.32,-0.15c-0.36,-0.16 -0.53,-0.25 -0.72,-0.25c-0.19,0 -0.36,0.09 -0.72,0.25l-0.32,0.15c-1.25,0.58 -1.87,0.87 -2.28,0.55c-0.42,-0.32 -0.35,-1.03 -0.21,-2.46l0.03,-0.37c0.04,-0.41 0.06,-0.61 0.01,-0.8c-0.06,-0.19 -0.19,-0.34 -0.45,-0.64l-0.23,-0.28c-0.91,-1.07 -1.36,-1.6 -1.2,-2.11c0.16,-0.51 0.82,-0.66 2.15,-0.97l0.35,-0.08c0.37,-0.09 0.56,-0.13 0.71,-0.25c0.16,-0.12 0.25,-0.29 0.45,-0.64l0.17,-0.32z" fill="#FE496A" id="svg_1"/>
  <path d="m16.36,14.04c0.69,-1.24 1.03,-1.86 1.54,-1.86c0.51,0 0.85,0.62 1.54,1.86l0.17,0.32c0.19,0.35 0.29,0.52 0.45,0.64c0.15,0.11 0.34,0.16 0.71,0.25l0.35,0.08c1.33,0.31 1.99,0.46 2.15,0.97c0.16,0.51 -0.29,1.05 -1.2,2.11l-0.23,0.28c-0.26,0.3 -0.39,0.45 -0.45,0.64c-0.05,0.19 -0.04,0.39 0,0.8l0.04,0.37c0.13,1.43 0.21,2.14 -0.21,2.46c-0.41,0.32 -1.03,0.03 -2.28,-0.55l-0.32,-0.15c-0.36,-0.16 -0.53,-0.25 -0.72,-0.25c-0.19,0 -0.36,0.09 -0.72,0.25l-0.32,0.15c-1.25,0.58 -1.87,0.87 -2.28,0.55c-0.42,-0.32 -0.35,-1.03 -0.21,-2.46l0.03,-0.37c0.04,-0.41 0.06,-0.61 0.01,-0.8c-0.06,-0.19 -0.19,-0.34 -0.45,-0.64l-0.23,-0.28c-0.91,-1.07 -1.36,-1.6 -1.2,-2.11c0.16,-0.51 0.82,-0.66 2.15,-0.97l0.35,-0.08c0.37,-0.09 0.56,-0.13 0.71,-0.25c0.16,-0.12 0.25,-0.29 0.45,-0.64l0.17,-0.32z" fill="#FE496A" id="svg_3"/>
  <path d="m4.71,2.65c0.69,-1.24 1.03,-1.86 1.54,-1.86c0.51,0 0.85,0.62 1.54,1.86l0.17,0.32c0.19,0.35 0.29,0.52 0.45,0.64c0.15,0.11 0.34,0.16 0.71,0.25l0.35,0.08c1.33,0.31 1.99,0.46 2.15,0.97c0.16,0.51 -0.29,1.05 -1.2,2.11l-0.23,0.28c-0.26,0.3 -0.39,0.45 -0.45,0.64c-0.05,0.19 -0.04,0.39 0,0.8l0.04,0.37c0.13,1.43 0.21,2.14 -0.21,2.46c-0.41,0.32 -1.03,0.03 -2.28,-0.55l-0.32,-0.15c-0.36,-0.16 -0.53,-0.25 -0.72,-0.25c-0.19,0 -0.36,0.09 -0.72,0.25l-0.32,0.15c-1.25,0.58 -1.87,0.87 -2.28,0.55c-0.42,-0.32 -0.35,-1.03 -0.21,-2.46l0.03,-0.37c0.04,-0.41 0.06,-0.61 0.01,-0.8c-0.06,-0.19 -0.19,-0.34 -0.45,-0.64l-0.23,-0.28c-0.91,-1.07 -1.36,-1.6 -1.2,-2.11c0.16,-0.51 0.82,-0.66 2.15,-0.97l0.35,-0.08c0.37,-0.09 0.56,-0.13 0.71,-0.25c0.16,-0.12 0.25,-0.29 0.45,-0.64l0.17,-0.32z" fill="#FE496A" id="svg_4"/>
  <path d="m16.41,2.63c0.69,-1.24 1.03,-1.86 1.54,-1.86c0.51,0 0.85,0.62 1.54,1.86l0.17,0.32c0.19,0.35 0.29,0.52 0.45,0.64c0.15,0.11 0.34,0.16 0.71,0.25l0.35,0.08c1.33,0.31 1.99,0.46 2.15,0.97c0.16,0.51 -0.29,1.05 -1.2,2.11l-0.23,0.28c-0.26,0.3 -0.39,0.45 -0.45,0.64c-0.05,0.19 -0.04,0.39 0,0.8l0.04,0.37c0.13,1.43 0.21,2.14 -0.21,2.46c-0.41,0.32 -1.03,0.03 -2.28,-0.55l-0.32,-0.15c-0.36,-0.16 -0.53,-0.25 -0.72,-0.25c-0.19,0 -0.36,0.09 -0.72,0.25l-0.32,0.15c-1.25,0.58 -1.87,0.87 -2.28,0.55c-0.42,-0.32 -0.35,-1.03 -0.21,-2.46l0.03,-0.37c0.04,-0.41 0.06,-0.61 0.01,-0.8c-0.06,-0.19 -0.19,-0.34 -0.45,-0.64l-0.23,-0.28c-0.91,-1.07 -1.36,-1.6 -1.2,-2.11c0.16,-0.51 0.82,-0.66 2.15,-0.97l0.35,-0.08c0.37,-0.09 0.56,-0.13 0.71,-0.25c0.16,-0.12 0.25,-0.29 0.45,-0.64l0.17,-0.32z" fill="#FE496A" id="svg_2"/>
 </g>
</svg>